<svg width="174" height="64" viewBox="0 0 174 64" fill="none" xmlns="http://www.w3.org/2000/svg">
<path d="M36.2737 54.4247H18.56L12.7643 48.6412V2.15527H30.5052L36.2737 7.96602V28.0444L33.7704 30.7998L36.2737 33.6097V54.4247Z" fill="#271378"/>
<path d="M31.8657 11.7305H49.5793L55.3751 17.5139V54.4244H37.6614L31.8657 48.641V11.7305Z" fill="#271378"/>
<path d="M56.7356 54.4247L50.9398 48.6412V2.15527H59.13L64.9258 7.96602V54.4247H56.7356Z" fill="#271378"/>
<path d="M66.2863 54.4247L60.4906 48.6412V2.15527H68.6808L74.4493 7.96602V54.4247H66.2863Z" fill="#271378"/>
<path d="M93.5506 63.9999H75.837L70.0413 58.2164V50.005H71.4018L70.0413 48.6409V11.7305H78.2042L79.592 13.0945V11.7305H87.7549L93.5506 17.5139V63.9999Z" fill="#271378"/>
<path d="M112.652 54.4247H94.9111L89.1426 48.6412V2.15527H106.856L112.652 7.96602V30.4451H111.264L112.652 31.8364V54.4247Z" fill="#271378"/>
<path d="M108.217 11.7305H125.958L131.726 17.5139V54.4244H114.013L108.217 48.641V11.7305Z" fill="#271378"/>
<path d="M141.277 54.4245H133.114L127.318 48.6411V11.7306H130.883L125.522 6.27451L131.781 0L143.073 11.2941L139.127 15.3043L141.277 17.5141V54.4245Z" fill="#271378"/>
<path d="M150.828 53.0604V54.4244H142.637L136.869 48.641V11.7305H154.583L160.378 17.5139V54.4244H152.188L150.828 53.0604Z" fill="#271378"/>
<path d="M6.38772 23.8721L0 30.2764L6.38772 36.6807L12.7754 30.2764L6.38772 23.8721Z" fill="#271378"/>
<path d="M166.74 23.8848L160.352 30.2891L166.74 36.6933L173.127 30.2891L166.74 23.8848Z" fill="#271378"/>
<path d="M13.6895 2.91895H29.7433V22.0698L26.8319 25.2889L29.7433 28.5899V47.7408H13.6895V2.91895ZM20.1926 22.0698H23.2401V9.43898H20.1926V22.0698ZM20.1926 41.1935H23.2401V28.5626H20.1926V41.1935Z" fill="white"/>
<path d="M32.7908 12.4946H48.8447V47.741H32.7908V12.4946ZM39.294 41.1937H42.3415V19.0147H39.294V41.1937Z" fill="white"/>
<path d="M58.3682 2.91895H51.865V47.7135H58.3682V2.91895Z" fill="white"/>
<path d="M67.9189 2.91895H61.4157V47.7135H67.9189V2.91895Z" fill="white"/>
<path d="M70.9664 57.2892V50.7691H80.517V47.741H70.9664V12.4946H77.4695V41.1937H80.517V12.4946H87.0202V57.2892H70.9664Z" fill="white"/>
<path d="M90.0405 2.91895H106.094V23.7339H99.5912V9.43898H96.5437V41.1935H99.5912V26.7894H106.094V47.7408H90.0405V2.91895Z" fill="white"/>
<path d="M109.142 12.4946H125.196V47.741H109.142V12.4946ZM115.645 41.1937H118.693V19.0147H115.645V41.1937Z" fill="white"/>
<path d="M126.91 5.86528L131.509 1.25488L136.053 5.78344L131.454 10.4484L126.91 5.86528ZM134.747 47.7408H128.243V12.4944H134.747V47.7408Z" fill="white"/>
<path d="M147.317 19.0147H144.297V47.741H137.767V12.4946H153.821V47.741H147.317V19.0147Z" fill="white"/>
<path d="M6.38772 25.5313L1.6354 30.2959L6.38772 35.0605L11.14 30.2959L6.38772 25.5313Z" fill="white"/>
<path d="M166.759 25.5244L162.007 30.2891L166.759 35.0537L171.511 30.2891L166.759 25.5244Z" fill="white"/>
<path d="M29.9338 48.0954H13.5262V2.91895H29.9338V22.2881L27.0495 25.4799L29.9066 28.699V48.0954H29.9338ZM16.7914 44.549V6.43813L13.8799 3.51912V47.4952L16.7914 44.549ZM26.3965 6.16532L29.3351 3.27359H14.0976L17.009 6.13804H26.3965V6.16532ZM22.3422 25.2889L24.8999 24.1432L23.1585 22.3972H20.247L17.39 25.2889H22.3422ZM26.0427 44.4398L23.1857 41.5754H20.247L17.39 44.4398H26.0427ZM23.0497 9.79363H20.3559V22.0698H23.0497V9.79363ZM23.0497 28.9445H20.3559V41.2207H23.0497V28.9445ZM25.1448 23.9249L26.3421 20.9241V6.82005L23.4306 9.6845V22.179L25.1448 23.9249ZM26.3421 44.1943V30.0085L25.1992 27.0894L23.4034 28.8354V41.3299L26.3421 44.1943Z" fill="#2882E5"/>
<path d="M49.008 48.0957H32.6004V12.4946H49.008V48.0957ZM32.9541 47.4955L35.8656 44.5765V16.0138L32.9541 13.0948V47.4955ZM45.4979 15.7137L48.4094 12.8493H33.199L36.1105 15.7137H45.4979ZM45.1442 44.4401L42.2871 41.5756H39.3757L36.5186 44.4401H45.1442ZM42.1511 19.3693H39.4573V41.1937H42.1511V19.3693ZM45.4435 44.1945V16.3685L42.532 19.2329V41.3028L45.4435 44.1945Z" fill="#2882E5"/>
<path d="M58.5586 48.0954H51.7017V2.91895H58.5586V48.0954ZM52.0554 47.4952L54.9669 44.5762V6.43813L52.0554 3.51912V47.4952ZM55.1574 6.08348L57.96 3.27359H52.3003L55.1574 6.08348Z" fill="#2882E5"/>
<path d="M68.1093 48.0954H61.2524V2.91895H68.1093V48.0954ZM61.6061 47.4952L64.5176 44.5762V6.43813L61.6061 3.51912V47.4952ZM64.708 6.08348L67.5107 3.27359H61.851L64.708 6.08348Z" fill="#2882E5"/>
<path d="M87.1834 57.6711H70.7759V50.7964H80.3266V48.0956H70.7759V12.4946H77.6328V41.1937H80.3266V12.4946H87.1834V57.6711ZM71.1296 47.4955L74.0411 44.5765V16.0138L71.1296 13.0948V47.4955ZM71.1296 57.0709L73.9322 54.261L71.1296 51.3966V57.0709ZM74.2315 15.6592L77.0342 12.8493H71.3745L74.2315 15.6592ZM83.3196 54.0701L80.4626 51.1511H71.4017L74.3132 54.0701H83.3196ZM83.3196 44.4401L80.4626 41.5756H77.5511L74.6941 44.4401H83.3196ZM83.6189 44.1945V16.0138L80.6803 13.0948V41.3301L83.6189 44.1945ZM83.6189 53.77V45.0948L80.7075 47.9592V50.8783L83.6189 53.77ZM83.7822 15.6592L86.5848 12.8493H80.9252L83.7822 15.6592Z" fill="#2882E5"/>
<path d="M106.285 48.0954H89.8773V2.91895H106.285V24.0886H99.428V9.79363H96.7342V41.1935H99.428V26.7894H106.285V48.0954ZM90.231 47.4952L93.1425 44.5762V6.43813L90.231 3.51912V47.4952ZM102.775 6.16532L105.686 3.27359H90.4759L93.3874 6.13804H102.775V6.16532ZM102.394 44.4398L99.5368 41.5754H96.6254L93.7683 44.4398H102.394ZM99.7817 23.4884L102.693 20.5694V6.82005L99.7817 9.6845V23.4884ZM102.693 44.1943V30.3085L99.7817 27.3895V41.3299L102.693 44.1943ZM102.884 29.9539L105.686 27.144H100.027L102.884 29.9539Z" fill="#2882E5"/>
<path d="M125.386 48.0957H108.979V12.4946H125.386V48.0957ZM109.332 47.4955L112.244 44.5765V16.0138L109.332 13.0948V47.4955ZM121.849 15.7137L124.76 12.8493H109.55L112.461 15.7137H121.849ZM121.495 44.4401L118.638 41.5756H115.727L112.87 44.4401H121.495ZM118.502 19.3693H115.808V41.1937H118.502V19.3693ZM121.794 44.1945V16.3685L118.883 19.2329V41.3028L121.794 44.1945Z" fill="#2882E5"/>
<path d="M131.508 1.2002L136.27 5.97428L131.427 10.8848L126.665 6.02884L131.508 1.2002ZM131.345 5.86516V1.85493L127.345 5.86516H131.345ZM131.291 10.23V6.2198H127.345L131.291 10.23ZM134.91 48.0953H128.053V12.4943H134.91V48.0953ZM128.407 47.4952L131.318 44.5762V16.0135L128.407 13.0945V47.4952ZM131.508 15.6588L134.311 12.849H128.651L131.508 15.6588Z" fill="#2882E5"/>
<path d="M147.154 19.3693H144.46V48.0957H137.604V12.4946H154.011V48.0957H147.154V19.3693ZM137.957 47.4955L140.869 44.5765V16.0138L137.957 13.0948V47.4955ZM150.501 15.7137L153.412 12.8493H138.202L141.114 15.7137H150.501ZM147.508 47.4955L150.419 44.5765V16.3685L147.508 19.2329V47.4955Z" fill="#2882E5"/>
<path d="M6.42442 25.4526L11.1862 30.2267L6.34279 35.1372L1.58105 30.2813L6.42442 25.4526ZM6.23395 30.1176V26.1074L2.23409 30.1176H6.23395ZM6.17953 34.4825V30.4722H2.23409L6.17953 34.4825Z" fill="#2882E5"/>
<path d="M166.773 25.4526L171.534 30.2267L166.691 35.1372L161.956 30.2813L166.773 25.4526ZM166.609 30.1176V26.1074L162.609 30.1176H166.609ZM166.555 34.4825V30.4722H162.609L166.555 34.4825Z" fill="#2882E5"/>
</svg>
