<svg xmlns="http://www.w3.org/2000/svg" viewBox="0 0 636.28 234.63"><defs><style>.cls-1{fill:#5d2e64;}.cls-2{fill:#ffd527;}.cls-3{fill:#c878f0;}</style></defs><title>logo-pink</title><g id="Layer_2" data-name="Layer 2"><g id="Layer_1-2" data-name="Layer 1"><path class="cls-1" d="M133.32,199.54H68.2L46.92,178.27V7.89h65.13l21.27,21.28v73.67l-9.21,10.09,9.21,10.31Z"/><path class="cls-1" d="M117.08,43h65.13l21.27,21.27V199.54H138.36l-21.28-21.27Z"/><path class="cls-1" d="M208.52,199.54l-21.27-21.27V7.89h30l21.27,21.28V199.54Z"/><path class="cls-1" d="M243.59,199.54l-21.27-21.27V7.89h30l21.27,21.28V199.54Z"/><path class="cls-1" d="M343.8,234.63H278.67L257.4,213.36v-30h5.05l-5.05-5V43h30l5.05,5V43h30L343.8,64.25Z"/><path class="cls-1" d="M414,199.54H348.83l-21.27-21.27V7.89h65.13L414,29.17v82.45h-5l5,5Z"/><path class="cls-1" d="M397.72,43h65.13l21.27,21.27V199.54H419l-21.28-21.27Z"/><path class="cls-1" d="M519.2,199.54h-30l-21.28-21.27V43H481L461.31,23l23-23,41.44,41.44L511.3,56.13l7.9,8.12Z"/><path class="cls-1" d="M554.27,194.5v5h-30L503,178.27V43h65.13l21.27,21.27V199.54h-30Z"/><rect class="cls-1" x="6.87" y="94.44" width="33.18" height="33.18" transform="translate(-71.64 49.11) rotate(-45)"/><rect class="cls-1" x="596.23" y="94.44" width="33.18" height="33.18" transform="translate(100.98 465.85) rotate(-45)"/><path class="cls-2" d="M50.31,10.71h59V80.88L98.55,92.72l10.75,12.06V175h-59Zm23.9,70.17H85.4V34.61H74.21Zm0,70.17H85.4V104.78H74.21Z"/><path class="cls-2" d="M120.47,45.8h59V175h-59Zm23.9,105.25h11.19V69.7H144.37Z"/><path class="cls-2" d="M190.63,10.71h23.9V175h-23.9Z"/><path class="cls-2" d="M225.71,10.71h23.9V175h-23.9Z"/><path class="cls-2" d="M260.79,210V186.13h35.08V175H260.79V45.8h23.9V151.05h11.18V45.8h23.91V210Z"/><path class="cls-2" d="M331,10.71h59V87H366V34.61H354.85V151.05H366V98.2h23.91V175H331Z"/><path class="cls-2" d="M401.11,45.8h59V175h-59ZM425,151.05H436.2V69.7H425Z"/><path class="cls-2" d="M466.45,21.46,483.33,4.57,500,21.24l-16.88,17.1ZM495.17,45.8V175h-23.9V45.8Z"/><path class="cls-2" d="M541.44,69.7H530.25V175h-23.9V45.8h59V175h-23.9Z"/><rect class="cls-2" x="11.13" y="98.7" width="24.67" height="24.67" transform="translate(-71.64 49.11) rotate(-45)"/><rect class="cls-2" x="600.49" y="98.7" width="24.67" height="24.67" transform="translate(100.98 465.85) rotate(-45)"/><path class="cls-3" d="M110,176.27H49.65V10.71H110V81.76L99.43,93.38,110,105.22ZM61.71,163.33V23.65L51,12.9V174.07ZM97,22.55,107.76,12H51.84L62.59,22.55ZM82.11,92.72l9.42-4.17L85.18,82.2H74.43L63.91,92.72ZM95.7,162.89,85.18,152.36H74.43L63.91,162.89Zm-11-82V35.93H74.87V80.88Zm0,70.17v-45H74.87v45Zm7.67-63.37,4.39-11V25L86.05,35.49V81.32ZM96.8,162V110L92.63,99.3l-6.58,6.36v45.83Z"/><path class="cls-3" d="M180.11,176.27h-60.3V45.8h60.3Zm-59-2.2,10.74-10.74V58.73L121.13,48ZM167.18,57.64l10.74-10.53H122l10.75,10.53Zm-1.32,105.25-10.52-10.53H144.59l-10.52,10.53Zm-11-11.84V71H145v80ZM167,162v-102L156.21,70.57v80.92Z"/><path class="cls-3" d="M215.19,176.27H190V10.71h25.21Zm-23.9-2.2L202,163.33V23.65L191.29,12.9Zm11.4-151.74L213,12H192.17Z"/><path class="cls-3" d="M250.27,176.27H225.05V10.71h25.22Zm-23.9-2.2,10.74-10.74V23.65L226.37,12.9Zm11.4-151.74L248.08,12H227.24Z"/><path class="cls-3" d="M320.43,211.35h-60.3V186.13h35.08v-9.86H260.13V45.8h25.22V151.05h9.86V45.8h25.22Zm-59-37.28,10.74-10.74V58.73L261.45,48Zm0,35.09,10.3-10.31-10.3-10.52Zm11.4-151.74,10.31-10.31H262.32Zm33.33,140.77-10.53-10.74H262.32l10.75,10.74Zm0-35.3-10.53-10.53H284.91l-10.52,10.53Zm1.1-.88V58.73L296.53,48v103.5Zm0,35.09V165.3l-10.75,10.53v10.74Zm.65-139.68,10.31-10.31H297.41Z"/><path class="cls-3" d="M390.59,176.27h-60.3V10.71h60.3V88.34H365.37V35.93h-9.86V151.05h9.86V98.2h25.22Zm-59-2.2,10.74-10.74V23.65L331.61,12.9ZM377.66,22.55,388.4,12H332.48l10.75,10.52Zm-1.32,140.34-10.53-10.53H355.07l-10.53,10.53Zm-9.65-76.75L377.44,75.4V25L366.69,35.49ZM377.44,162V111.14L366.69,100.4v51.09Zm.65-52.18L388.4,99.52H367.57Z"/><path class="cls-3" d="M460.75,176.27h-60.3V45.8h60.3Zm-59-2.2,10.74-10.74V58.73L401.77,48ZM447.82,57.64l10.74-10.53H402.65l10.74,10.53ZM446.5,162.89,436,152.36H425.23l-10.52,10.53Zm-11-11.84V71h-9.87v80Zm12.06,11v-102L436.85,70.57v80.92Z"/><path class="cls-3" d="M483.33,4.35l17.54,17.54-17.76,18L465.57,22.11Zm-.66,17.11V6.77L468,21.46Zm-.21,16V22.77H468Zm13.37,138.81H470.61V45.8h25.22Zm-23.9-2.2,10.74-10.74V58.73L471.93,48Zm11.4-116.65,10.31-10.31H472.8Z"/><path class="cls-3" d="M540.78,71h-9.87V176.27H505.69V45.8H566V176.27H540.78ZM507,174.07l10.74-10.74V58.73L507,48Zm46-116.43L563.8,47.11H507.88l10.75,10.53Zm-11,116.43,10.75-10.74V60.05L542.09,70.57Z"/><path class="cls-3" d="M23.57,93.27l17.54,17.54-17.76,18L5.81,111Zm-.66,17.1V95.68L8.22,110.37Zm-.21,16V111.69H8.22Z"/><path class="cls-3" d="M612.93,93.27l17.54,17.54-17.76,18L595.17,111Zm-.66,17.1V95.68l-14.69,14.69Zm-.21,16V111.69H597.58Z"/></g></g></svg>